<?xml version="1.0" encoding="utf-8"?>
<!-- Generator: Adobe Illustrator 16.0.0, SVG Export Plug-In . SVG Version: 6.00 Build 0)  -->
<!DOCTYPE svg PUBLIC "-//W3C//DTD SVG 1.1//EN" "http://www.w3.org/Graphics/SVG/1.1/DTD/svg11.dtd" [
	<!ENTITY ns_extend "http://ns.adobe.com/Extensibility/1.0/">
	<!ENTITY ns_ai "http://ns.adobe.com/AdobeIllustrator/10.0/">
	<!ENTITY ns_graphs "http://ns.adobe.com/Graphs/1.0/">
	<!ENTITY ns_vars "http://ns.adobe.com/Variables/1.0/">
	<!ENTITY ns_imrep "http://ns.adobe.com/ImageReplacement/1.0/">
	<!ENTITY ns_sfw "http://ns.adobe.com/SaveForWeb/1.0/">
	<!ENTITY ns_custom "http://ns.adobe.com/GenericCustomNamespace/1.0/">
	<!ENTITY ns_adobe_xpath "http://ns.adobe.com/XPath/1.0/">
]>
<svg version="1.1" id="Layer_1" xmlns:x="&ns_extend;" xmlns:i="&ns_ai;" xmlns:graph="&ns_graphs;"
	 xmlns="http://www.w3.org/2000/svg" xmlns:xlink="http://www.w3.org/1999/xlink" x="0px" y="0px" width="199.708px"
	 height="47.041px" viewBox="0 0 199.708 47.041" enable-background="new 0 0 199.708 47.041" xml:space="preserve">
<metadata>
	<sfw  xmlns="&ns_sfw;">
		<slices></slices>
		<sliceSourceBounds  y="-47.242" x="0.438" height="46.637" width="199.416" bottomLeftOrigin="true"></sliceSourceBounds>
	</sfw>
</metadata>
<g>
	<g>
		<g>
			<path fill="#5DB248" d="M12.742,46.839H0.146V0.202h22.261v11.176h-9.666v5.951h9v11.175h-9V46.839z"/>
			<path fill="#5DB248" d="M56.678,46.839H43.659l-0.936-5.919h-8.487l-1.027,5.919H20.19L31.396,0.202H46.8L56.678,46.839z
				 M41.242,31.103l-0.815-5.437c-0.021-0.021-0.061-0.292-0.121-0.815c-0.041-0.444-0.252-2.195-0.634-5.257
				c-0.041-0.342-0.091-0.811-0.151-1.404s-0.142-1.344-0.242-2.25l-0.393-4.41c-0.04,0.423-0.096,0.896-0.166,1.42
				s-0.146,1.098-0.226,1.722c-0.142,1.249-0.243,2.114-0.303,2.598s-0.101,0.775-0.121,0.876l-0.876,5.647l-1.268,7.311H41.242z"/>
			<path fill="#5DB248" d="M55.692,46.839V0.202l12.021,0.001l6.313,16.37c0.342,0.967,0.729,2.074,1.163,3.322
				c0.433,1.249,0.911,2.688,1.435,4.32l1.299,4.106c-0.464-4.047-0.816-7.51-1.058-10.39c-0.242-2.879-0.362-5.296-0.362-7.249
				V0.203h12.142v46.636H76.503l-6.724-17.156c-0.705-1.832-1.34-3.549-1.906-5.149c-0.565-1.602-1.062-3.127-1.489-4.577
				c0.503,3.283,0.871,6.143,1.102,8.578c0.232,2.438,0.348,4.572,0.348,6.403v11.901H55.692z"/>
		</g>
		<g>
			<path fill="#5DB248" d="M108.089,29.082l-0.422,7.372c-1.633,0.605-3.096,0.908-4.387,0.908c-3.043,0-5.604-1.077-7.683-3.232
				c-2.326-2.415-3.488-5.835-3.488-10.258c0-4.14,1.092-7.463,3.277-9.97c2.185-2.495,5.103-3.743,8.755-3.743
				c1.188,0,2.396,0.214,3.631,0.642v7.516c-1.092-1.092-2.215-1.638-3.365-1.638c-1.504,0-2.678,0.635-3.525,1.903
				c-0.844,1.281-1.267,3.051-1.267,5.311c0,1.094,0.106,2.073,0.317,2.934c0.211,0.861,0.513,1.59,0.907,2.183
				c0.395,0.595,0.877,1.049,1.455,1.362c0.574,0.315,1.232,0.473,1.973,0.473C105.534,30.844,106.81,30.257,108.089,29.082z"/>
			<path fill="#5DB248" d="M127.974,37.362h-7.348v-10.94h-3.506v10.94h-7.346V10.159h7.346v9.743h3.506v-9.743h7.348V37.362z"/>
			<path fill="#5DB248" d="M149.565,37.362h-7.594l-0.547-3.453h-4.949l-0.6,3.453h-7.592l6.535-27.203h8.984L149.565,37.362z
				 M140.563,28.184l-0.477-3.171c-0.012-0.013-0.035-0.171-0.07-0.478c-0.023-0.257-0.146-1.279-0.369-3.064
				c-0.025-0.2-0.053-0.473-0.09-0.819c-0.035-0.347-0.082-0.784-0.141-1.312l-0.229-2.572c-0.023,0.246-0.057,0.522-0.098,0.828
				s-0.084,0.64-0.131,1.004c-0.082,0.729-0.141,1.233-0.178,1.516c-0.035,0.282-0.059,0.451-0.068,0.511l-0.512,3.294l-0.74,4.265
				H140.563z"/>
			<path fill="#5DB248" d="M149.894,37.362V10.159h7.012l3.682,9.55c0.201,0.563,0.426,1.21,0.678,1.938
				c0.254,0.728,0.533,1.568,0.838,2.519l0.758,2.397c-0.271-2.361-0.477-4.382-0.617-6.062c-0.141-1.679-0.211-3.089-0.211-4.228
				v-6.114h7.082v27.203h-7.082l-3.924-10.007c-0.41-1.069-0.779-2.07-1.109-3.004s-0.619-1.823-0.869-2.67
				c0.295,1.916,0.508,3.583,0.643,5.004c0.135,1.422,0.203,2.667,0.203,3.734v6.942H149.894z"/>
			<path fill="#5DB248" d="M180.542,37.362h-7.348V16.679h-4.053v-6.52h15.611v6.52h-4.211V37.362z"/>
			<path fill="#5DB248" d="M184.851,36.253v-8.369c1.445,1.974,3.006,2.96,4.688,2.96c0.635,0,1.15-0.162,1.551-0.485
				c0.398-0.323,0.598-0.728,0.598-1.214c0-0.703-0.434-1.389-1.303-2.058l-1.197-0.899c-0.801-0.579-1.482-1.153-2.045-1.726
				s-1.023-1.162-1.373-1.768c-0.354-0.606-0.613-1.232-0.777-1.878c-0.164-0.646-0.246-1.326-0.246-2.04
				c0-1.224,0.295-2.504,0.881-3.841c0.295-0.623,0.635-1.192,1.023-1.708c0.387-0.516,0.832-0.972,1.338-1.368
				c1.387-1.133,3.059-1.7,5.021-1.7c1.748,0,3.512,0.451,5.285,1.353v8.162c-0.598-0.928-1.281-1.659-2.043-2.193
				c-0.766-0.534-1.516-0.802-2.256-0.802c-0.564,0-1.027,0.158-1.393,0.475c-0.375,0.306-0.562,0.674-0.562,1.104
				c0,0.702,0.498,1.398,1.496,2.089l1.164,0.832c1.551,1.076,2.66,2.18,3.328,3.312c0.682,1.132,1.023,2.457,1.023,3.974
				c0,2.581-0.818,4.71-2.449,6.386c-1.633,1.675-3.699,2.513-6.203,2.513C188.675,37.362,186.823,36.993,184.851,36.253z"/>
		</g>
		<g>
			<rect x="93.64" y="0.529" fill="#5DB248" width="105.921" height="7.023"/>
		</g>
		<g>
			<rect x="93.64" y="39.756" fill="#5DB248" width="105.921" height="7.022"/>
		</g>
	</g>
</g>
</svg>
