<?xml version="1.0" encoding="iso-8859-1"?>
<!-- Generator: Adobe Illustrator 19.0.0, SVG Export Plug-In . SVG Version: 6.00 Build 0)  -->
<svg xmlns="http://www.w3.org/2000/svg" xmlns:xlink="http://www.w3.org/1999/xlink" version="1.1" id="Capa_1" x="0px" y="0px" viewBox="0 0 473.68 473.68" style="enable-background:new 0 0 473.68 473.68;" xml:space="preserve">
<path style="fill:#258F44;" d="M97.682,236.844c0-18.339,3.586-35.833,10.03-51.865l-83.045-53.372  C8.904,163.316,0,199.029,0,236.844s8.911,73.528,24.666,105.244l83.045-53.375C101.268,272.677,97.682,255.183,97.682,236.844z"/>
<path style="fill:#C32126;" d="M325.39,129.577c4.293,3.556,8.407,7.333,12.247,11.372l83.053-53.375  C377.262,34.154,311.053,0,236.836,0C281.828,0,311.344,56.049,325.39,129.577z"/>
<path style="fill:#D32027;" d="M222.951,0.4c0.045,0,0.079,0,0.123-0.007C223.034,0.4,222.996,0.4,222.951,0.4z"/>
<path style="fill:#238240;" d="M449.021,131.608l-83.045,53.368c6.451,16.032,10.03,33.526,10.03,51.865s-3.579,35.833-10.03,51.865  l83.038,53.368c15.762-31.708,24.666-67.421,24.666-105.236S464.776,163.316,449.021,131.608z"/>
<path style="fill:#D32027;" d="M223.067,473.288c-0.037,0-0.075,0-0.108-0.007C222.996,473.288,223.034,473.288,223.067,473.288z"/>
<path style="fill:#C32126;" d="M325.39,344.103c-14.046,73.536-43.559,129.577-88.554,129.577  c74.209,0,140.418-34.154,183.846-87.566l-83.053-53.375C333.789,336.777,329.683,340.551,325.39,344.103z"/>
<path style="fill:#E4E4E4;" d="M376.006,236.844c0-18.339-3.579-35.833-10.03-51.865l83.045-53.368  c-7.831-15.755-17.348-30.515-28.331-44.034l-83.053,53.372c-3.841-4.039-7.954-7.816-12.247-11.372  c7.517,39.367,10.583,83.748,9.226,127.221h12.468l-10.65,20.041l11.342,19.539H332.11c-1.578,16.428-3.807,32.46-6.72,47.725  c4.293-3.549,8.399-7.326,12.24-11.365l83.053,53.375c10.991-13.519,20.501-28.283,28.331-44.034l-83.038-53.368  C372.427,272.677,376.006,255.183,376.006,236.844z"/>
<g>
	<path style="fill:#C32126;" d="M342.54,293.361l-8.941-15.396c-0.337,5.164-0.729,10.299-1.197,15.396H342.54z"/>
	<path style="fill:#C32126;" d="M342.073,259.816h-7.547c-0.191,5.235-0.46,10.452-0.774,15.654L342.073,259.816z"/>
</g>
<g>
	<path style="fill:#258F44;" d="M344.578,258.309l-9.869,18.567l10.445,17.991h-12.898c-0.045,0.505-0.094,1.01-0.146,1.511h15.665   l-11.342-19.539l10.65-20.041h-12.468c-0.015,0.505-0.022,1.01-0.037,1.511L344.578,258.309L344.578,258.309z"/>
	<path style="fill:#258F44;" d="M334.709,276.876l9.869-18.567h-10c-0.015,0.505-0.037,1.002-0.052,1.503h7.547l-8.321,15.654   c-0.052,0.834-0.101,1.664-0.153,2.498l8.941,15.396h-10.138c-0.045,0.505-0.094,1.002-0.146,1.503h12.898L334.709,276.876z"/>
	<path style="fill:#258F44;" d="M223.075,0.396c4.551-0.254,9.143-0.393,13.762-0.393C232.285,0,227.693,0.146,223.075,0.396z"/>
	<path style="fill:#258F44;" d="M236.836,473.68c-4.615,0-9.211-0.131-13.769-0.393C227.693,473.542,232.285,473.68,236.836,473.68z   "/>
</g>
<g>
	<path style="fill:#D32027;" d="M52.998,87.574l83.053,53.375c25.351-26.637,61.12-43.267,100.793-43.267   c33.664,0,64.478,12,88.546,31.895C311.344,56.049,281.831,0,236.836,0c-4.615,0-9.211,0.138-13.762,0.393   c-0.04,0.007-0.078,0.007-0.123,0.007C154.404,4.368,93.696,37.504,52.998,87.574z"/>
	<path style="fill:#D32027;" d="M325.39,344.103c-24.061,19.895-54.882,31.903-88.546,31.903c-39.666,0-75.435-16.63-100.786-43.267   l-83.053,53.375c40.698,50.07,101.399,83.199,169.954,87.166c0.037,0.007,0.075,0.007,0.108,0.007   c4.559,0.262,9.151,0.393,13.769,0.393C281.828,473.68,311.344,417.639,325.39,344.103z"/>
</g>
<path style="fill:#F3F2F2;" d="M136.05,140.949L52.998,87.574c-10.991,13.519-20.5,28.283-28.331,44.034l83.045,53.368  c-6.443,16.032-10.03,33.526-10.03,51.865s3.586,35.833,10.03,51.865l-83.045,53.383c7.831,15.747,17.348,30.508,28.339,44.026  l83.053-53.375c25.351,26.637,61.12,43.267,100.786,43.267c33.664,0,64.486-12.008,88.546-31.903  c2.913-15.265,5.142-31.297,6.72-47.725h-7.599l-11.892,18.773l-11.279-18.799l-22.598-0.621l11.29-19.461l-10.677-19.472h22.598  l11.899-19.427l11.286,19.427h9.48c1.357-43.473-1.709-87.851-9.226-127.221c-24.068-19.895-54.882-31.895-88.546-31.895  C197.17,97.682,161.401,114.312,136.05,140.949z"/>
<path style="fill:#D32027;" d="M313.782,243.25l-10.146,16.566h-19.195l9.05,16.499l-9.596,16.536l19.18,0.535l9.618,16.024  l10.161-16.047h9.547c0.467-5.097,0.86-10.232,1.197-15.396l-0.613-1.058l0.767-1.44c0.314-5.202,0.583-10.415,0.774-15.654h-11.133  L313.782,243.25z"/>
<g>
	<path style="fill:#258F44;" d="M313.85,237.371l-11.899,19.427h-22.598l10.68,19.472l-11.286,19.457l22.598,0.621l11.279,18.799   l11.892-18.773h7.595c0.052-0.505,0.101-1.01,0.146-1.511h-8.567l-11.028,17.412l-10.452-17.412l-20.889-0.576l10.445-17.999   l-9.869-17.984h20.897l11.021-17.999l10.452,17.999h10.314c0.015-0.505,0.022-1.01,0.037-1.511h-9.48L313.85,237.371z"/>
	<path style="fill:#258F44;" d="M333.599,277.965c0.052-0.834,0.101-1.664,0.153-2.498l-0.767,1.44L333.599,277.965z"/>
	<path style="fill:#258F44;" d="M322.855,293.361l-10.161,16.047l-9.618-16.024l-19.18-0.535l9.596-16.536l-9.05-16.499h19.195   l10.146-16.566l9.611,16.566h11.133c0.015-0.505,0.037-1.002,0.052-1.503h-10.314l-10.452-17.999l-11.021,17.999h-20.897   l9.869,17.984l-10.445,17.999l20.889,0.576l10.452,17.412l11.028-17.412h8.567c0.052-0.505,0.101-1.002,0.146-1.503h-9.547v-0.006   H322.855z"/>
</g>
<polygon style="fill:#D32027;" points="239.267,197.096 250.299,179.684 271.772,179.684 261.327,161.685 271.196,143.122   250.882,143.122 240.43,125.131 229.41,143.122 208.513,143.122 218.382,161.11 207.937,179.108 228.826,179.684 "/>
<path style="fill:#258F44;" d="M239.241,199.968l-11.286-18.799l-22.598-0.632l11.294-19.45l-10.677-19.472h22.591l11.907-19.427  l11.286,19.427h21.948l-10.65,20.041l11.335,19.532h-23.257L239.241,199.968z M210.506,177.668l19.188,0.535l9.611,16.024  l10.168-16.047h19.685l-9.562-16.454l9.095-17.097h-18.676l-9.618-16.559l-10.138,16.559h-19.195l9.05,16.507L210.506,177.668z"/>
<polygon style="fill:#D32027;" points="165.118,312.279 176.15,294.868 197.623,294.868 187.178,276.876 197.043,258.309   176.734,258.309 166.281,240.314 155.261,258.309 134.364,258.309 144.229,276.293 133.784,294.288 154.674,294.868 "/>
<path style="fill:#258F44;" d="M165.092,315.147l-11.286-18.799l-22.598-0.621l11.294-19.457l-10.677-19.472h22.591l11.907-19.427  l11.286,19.427h21.948l-10.65,20.041l11.335,19.539h-23.257L165.092,315.147z M136.357,292.852l19.188,0.535l9.611,16.024  l10.168-16.047h19.685l-9.555-16.454l9.087-17.09h-18.679l-9.618-16.566l-10.138,16.566h-19.195l9.05,16.499L136.357,292.852z"/>
<g>
</g>
<g>
</g>
<g>
</g>
<g>
</g>
<g>
</g>
<g>
</g>
<g>
</g>
<g>
</g>
<g>
</g>
<g>
</g>
<g>
</g>
<g>
</g>
<g>
</g>
<g>
</g>
<g>
</g>
</svg>
