<?xml version="1.0" encoding="iso-8859-1"?>
<!-- Generator: Adobe Illustrator 19.0.0, SVG Export Plug-In . SVG Version: 6.00 Build 0)  -->
<svg xmlns="http://www.w3.org/2000/svg" xmlns:xlink="http://www.w3.org/1999/xlink" version="1.1" id="Capa_1" x="0px" y="0px" viewBox="0 0 473.681 473.681" style="enable-background:new 0 0 473.681 473.681;" xml:space="preserve">
<circle style="fill:#FFFFFF;" cx="236.85" cy="236.85" r="236.83"/>
<path style="fill:#3DAAE0;" d="M460.147,157.875c-0.022-0.075-0.045-0.138-0.075-0.206C429.762,72.2,351.792,9.319,258.111,0.972  c36.248,19.872,46.839,82.832,56.109,156.902c6.339,50.593,6.376,106.339,0.123,156.996c-9.196,74.47-19.831,137.875-56.232,157.83  c93.849-8.362,171.928-71.46,202.122-157.157c0.078-0.228,0.146-0.453,0.228-0.673c8.53-24.438,13.22-50.683,13.22-78.027  C473.68,209.141,468.882,182.575,460.147,157.875z"/>
<path style="fill:#44C1EF;" d="M326.419,157.875c-9.274-74.07-32.056-137.03-68.308-156.902c-7.012-0.621-14.102-0.972-21.275-0.972  c-103.03,0-190.645,65.802-223.228,157.669c-0.022,0.067-0.045,0.131-0.075,0.206C4.798,182.575,0,209.141,0,236.844  c0,27.348,4.697,53.589,13.219,78.027c0.079,0.221,0.153,0.445,0.228,0.673C45.9,407.646,133.642,473.68,236.836,473.68  c7.173,0,14.263-0.352,21.275-0.98c36.401-19.955,59.228-83.359,68.423-157.83C332.795,264.21,332.753,208.468,326.419,157.875z"/>
<path style="fill:#E8BD1F;" d="M378.328,236.844c0-46.678-22.606-88.064-57.459-113.83c2.199,11.241,4.054,22.905,5.55,34.861  c6.331,50.593,6.376,106.339,0.116,156.996c-1.511,12.285-3.411,24.255-5.669,35.795  C355.722,324.893,378.328,283.514,378.328,236.844z"/>
<path style="fill:#FDCE0C;" d="M326.419,157.875c-1.496-11.956-3.351-23.619-5.55-34.861c-23.503-17.374-52.56-27.658-84.025-27.658  c-78.139,0-141.492,63.341-141.492,141.492c0,78.139,63.353,141.484,141.492,141.484c31.465,0,60.529-10.284,84.025-27.658  c2.259-11.54,4.155-23.511,5.669-35.795C332.795,264.21,332.753,208.468,326.419,157.875z"/>
<g>
</g>
<g>
</g>
<g>
</g>
<g>
</g>
<g>
</g>
<g>
</g>
<g>
</g>
<g>
</g>
<g>
</g>
<g>
</g>
<g>
</g>
<g>
</g>
<g>
</g>
<g>
</g>
<g>
</g>
</svg>
