<?xml version="1.0" encoding="iso-8859-1"?>
<!-- Generator: Adobe Illustrator 19.0.0, SVG Export Plug-In . SVG Version: 6.00 Build 0)  -->
<svg xmlns="http://www.w3.org/2000/svg" xmlns:xlink="http://www.w3.org/1999/xlink" version="1.1" id="Capa_1" x="0px" y="0px" viewBox="0 0 473.69 473.69" style="enable-background:new 0 0 473.69 473.69;" xml:space="preserve">
<circle style="fill:#FFFFFF;" cx="236.86" cy="236.851" r="236.83"/>
<path style="fill:#258F44;" d="M307.174,284.087h161.79c3.089-15.265,4.719-31.065,4.719-47.242c0-16.2-1.638-32.022-4.734-47.306  H307.174C309.519,220.682,309.519,252.944,307.174,284.087z"/>
<path style="fill:#E8BD1F;" d="M468.905,189.288c-7.098-34.827-21.839-66.86-42.385-94.302H291.229  c8.07,28.17,13.38,60.548,15.946,94.302H468.905z"/>
<g>
	<path style="fill:#258F44;" d="M291.229,94.74h135.093C384.543,39.121,318.838,2.566,244.499,0.199h-4.259   C276.001,2.499,275.728,40.785,291.229,94.74z"/>
	<path style="fill:#258F44;" d="M236.836,473.689c77.283,0,145.904-37.03,189.134-94.302H291.229   C275.22,434.816,274.292,473.689,236.836,473.689z"/>
</g>
<path style="fill:#E8BD1F;" d="M426.374,378.882c20.684-27.557,35.496-59.774,42.583-94.791H307.245  c-2.554,33.937-7.894,66.498-16.017,94.791L426.374,378.882L426.374,378.882z"/>
<path style="fill:#FFFFFF;" d="M236.836,473.689c-77.275,0-145.897-37.03-189.119-94.302h269.289  c0.052-0.168,0.093-0.337,0.146-0.505H47.313c-20.684-27.557-35.496-59.774-42.587-94.788h328.442v-0.008H4.727  C1.638,268.821,0,253.021,0,236.844c0-16.2,1.638-32.022,4.742-47.306h328.419c-0.007-0.086-0.015-0.168-0.015-0.247H4.783  c7.098-34.827,21.832-66.86,42.385-94.302h270.033c-0.022-0.079-0.045-0.168-0.075-0.247H47.366  C89.144,39.121,154.842,2.566,229.181,0.199h11.058c-1.133-0.075-2.251-0.198-3.403-0.198"/>
<path style="fill:#2A9847;" d="M0,236.845c0,16.178,1.638,31.977,4.727,47.242h328.441c2.345-31.143,2.345-63.405-0.007-94.548  H4.742C1.638,204.826,0,220.645,0,236.845z"/>
<path style="fill:#F7C910;" d="M4.783,189.288h328.363c-2.565-33.75-7.872-66.131-15.946-94.302H47.167  C26.615,122.428,11.884,154.465,4.783,189.288z"/>
<g>
	<path style="fill:#2A9847;" d="M47.366,94.74H317.13c-15.501-53.955-41.128-92.241-76.89-94.541h-11.058   C154.842,2.566,89.144,39.121,47.366,94.74z"/>
	<path style="fill:#2A9847;" d="M236.836,473.689c37.456,0,64.164-38.873,80.17-94.302H47.717   C90.939,436.659,159.561,473.689,236.836,473.689z"/>
</g>
<path style="fill:#F7C910;" d="M47.313,378.882h269.835c8.122-28.294,13.463-60.855,16.017-94.791H4.727  C11.817,319.109,26.63,351.325,47.313,378.882z"/>
<path style="fill:#D32027;" d="M235.041,0.053C105.075,1.022,0,106.639,0,236.845c0,15.112,2.023,32.912,4.727,47.242h230.315V0.053  H235.041z"/>
<polygon style="fill:#F3F2F2;" points="125.658,97.799 140.594,143.77 188.936,143.77 149.831,172.183 164.77,218.162   125.658,189.748 86.538,218.162 101.481,172.183 62.376,143.77 110.718,143.77 "/>
<g>
</g>
<g>
</g>
<g>
</g>
<g>
</g>
<g>
</g>
<g>
</g>
<g>
</g>
<g>
</g>
<g>
</g>
<g>
</g>
<g>
</g>
<g>
</g>
<g>
</g>
<g>
</g>
<g>
</g>
</svg>
