<?xml version="1.0" encoding="iso-8859-1"?>
<!-- Generator: Adobe Illustrator 19.0.0, SVG Export Plug-In . SVG Version: 6.00 Build 0)  -->
<svg xmlns="http://www.w3.org/2000/svg" xmlns:xlink="http://www.w3.org/1999/xlink" version="1.1" id="Capa_1" x="0px" y="0px" viewBox="0 0 473.68 473.68" style="enable-background:new 0 0 473.68 473.68;" xml:space="preserve">
<circle style="fill:#FFFFFF;" cx="236.85" cy="236.85" r="236.83"/>
<path style="fill:#EFECEC;" d="M460.144,157.874H314.219c6.335,50.593,6.376,106.339,0.12,156.995h146.116  c8.526-24.438,13.219-50.682,13.219-78.026C473.678,209.139,468.88,182.573,460.144,157.874z"/>
<path style="fill:#C42B27;" d="M314.219,157.874h145.922c-0.026-0.075-0.049-0.138-0.075-0.206  C429.756,72.2,351.79,9.319,258.114,0.972C294.361,20.844,304.948,83.811,314.219,157.874z"/>
<path style="fill:#0B0B0B;" d="M258.114,472.697c93.848-8.362,171.927-71.46,202.12-157.156c0.079-0.228,0.146-0.453,0.228-0.673  h-146.12C305.146,389.338,294.515,452.743,258.114,472.697z"/>
<path style="fill:#EFEFEF;" d="M0.001,236.842c0,27.348,4.693,53.588,13.219,78.026h313.313c6.256-50.66,6.215-106.402-0.12-156.995  H13.534C4.798,182.573,0.001,209.139,0.001,236.842z"/>
<path style="fill:#CC3434;" d="M13.609,157.668c-0.026,0.067-0.049,0.131-0.075,0.206h312.879  c-9.27-74.062-32.052-137.029-68.303-156.901C251.098,0.352,244.007,0,236.835,0C133.807,0,46.188,65.802,13.609,157.668z"/>
<path style="fill:#151515;" d="M326.533,314.868H13.22c0.079,0.221,0.15,0.445,0.228,0.673  c32.452,92.102,120.19,158.135,223.387,158.135c7.173,0,14.263-0.352,21.274-0.98C294.515,452.743,317.337,389.338,326.533,314.868z  "/>
<g>
	<polygon style="fill:#258F44;" points="141.928,182.88 154.078,220.283 193.414,220.283 161.594,243.401 173.748,280.805    141.928,257.687 110.108,280.805 122.261,243.401 90.445,220.283 129.779,220.283  "/>
	<polygon style="fill:#258F44;" points="326.72,182.88 338.874,220.283 378.206,220.283 346.39,243.401 358.544,280.805    326.72,257.687 294.896,280.805 307.053,243.401 275.237,220.283 314.57,220.283  "/>
</g>
<g>
</g>
<g>
</g>
<g>
</g>
<g>
</g>
<g>
</g>
<g>
</g>
<g>
</g>
<g>
</g>
<g>
</g>
<g>
</g>
<g>
</g>
<g>
</g>
<g>
</g>
<g>
</g>
<g>
</g>
</svg>
