<?xml version="1.0" encoding="iso-8859-1"?>
<!-- Generator: Adobe Illustrator 19.0.0, SVG Export Plug-In . SVG Version: 6.00 Build 0)  -->
<svg xmlns="http://www.w3.org/2000/svg" xmlns:xlink="http://www.w3.org/1999/xlink" version="1.1" id="Capa_1" x="0px" y="0px" viewBox="0 0 473.681 473.681" style="enable-background:new 0 0 473.681 473.681;" xml:space="preserve">
<circle style="fill:#FFFFFF;" cx="236.85" cy="236.851" r="236.83"/>
<path style="fill:#BE2126;" d="M460.143,157.874c-0.026-0.075-0.049-0.138-0.075-0.206C429.756,72.202,351.789,9.321,258.113,0.974  c36.248,19.872,46.834,82.832,56.109,156.901c6.335,50.593,6.376,106.339,0.12,156.995c-9.196,74.47-19.827,137.874-56.228,157.829  c93.848-8.362,171.927-71.46,202.12-157.156c0.079-0.228,0.146-0.452,0.228-0.673c8.526-24.438,13.219-50.682,13.219-78.026  C473.677,209.141,468.879,182.575,460.143,157.874z"/>
<path style="fill:#CD2227;" d="M326.412,157.874c-9.27-74.07-32.052-137.029-68.303-156.901C251.097,0.352,244.007,0,236.835,0  C133.806,0,46.188,65.803,13.608,157.668c-0.026,0.067-0.049,0.131-0.075,0.206C4.798,182.575,0,209.141,0,236.842  c0,27.348,4.693,53.588,13.219,78.026c0.079,0.221,0.15,0.445,0.228,0.673c32.452,92.102,120.19,158.135,223.387,158.135  c7.173,0,14.263-0.352,21.274-0.98c36.401-19.954,59.227-83.359,68.423-157.829C332.788,264.209,332.747,208.467,326.412,157.874z"/>
<path style="fill:#E4E4E4;" d="M469.664,193.577H308.425c1.784,27.157,1.907,55.043,0.307,82.271h161.699  c2.117-12.688,3.246-25.71,3.246-39.004C473.677,222.053,472.271,207.607,469.664,193.577z"/>
<path style="fill:#F3F4F5;" d="M329.752,193.577h-114.51V1.012c-29.296,2.644-57.036,10.635-82.271,22.98v169.59H4.013  C1.406,207.611,0,222.058,0,236.846c0,13.294,1.129,26.315,3.246,39.004h129.722v173.838c25.235,12.344,52.975,20.336,82.271,22.983  V275.847h114.816C331.659,248.616,331.532,220.73,329.752,193.577z"/>
<g>
</g>
<g>
</g>
<g>
</g>
<g>
</g>
<g>
</g>
<g>
</g>
<g>
</g>
<g>
</g>
<g>
</g>
<g>
</g>
<g>
</g>
<g>
</g>
<g>
</g>
<g>
</g>
<g>
</g>
</svg>
