<?xml version="1.0" encoding="iso-8859-1"?>
<!-- Generator: Adobe Illustrator 19.0.0, SVG Export Plug-In . SVG Version: 6.00 Build 0)  -->
<svg xmlns="http://www.w3.org/2000/svg" xmlns:xlink="http://www.w3.org/1999/xlink" version="1.1" id="Capa_1" x="0px" y="0px" viewBox="0 0 473.68 473.68" style="enable-background:new 0 0 473.68 473.68;" xml:space="preserve">
<path style="fill:#F3C515;" d="M306.15,236.844h167.53C473.68,106.033,367.644,0,236.836,0C302.242,0,306.15,118.418,306.15,236.844  z"/>
<path style="fill:#258F44;" d="M290.638,236.844c0,118.418-53.802,236.836-53.802,236.836  c130.808,0,236.844-106.036,236.844-236.836H290.638z"/>
<path style="fill:#F8D12E;" d="M61.834,236.844h273.107C334.941,118.418,302.242,0,236.836,0  C106.04,0,61.834,106.033,61.834,236.844z"/>
<path style="fill:#359846;" d="M334.941,236.844H66.823c0,130.8,39.213,236.836,170.013,236.836  C302.242,473.68,334.941,355.262,334.941,236.844z"/>
<path style="fill:#DB2727;" d="M177.194,7.58C75.267,34.023,0,126.634,0,236.844C0,347.039,75.274,439.65,177.201,466.1V7.58  H177.194z"/>
<polygon style="fill:#151515;" points="88.763,156.566 104.073,203.692 153.63,203.692 113.538,232.82 128.855,279.95   88.763,250.823 48.675,279.95 63.981,232.82 23.892,203.692 73.45,203.692 "/>
<g>
</g>
<g>
</g>
<g>
</g>
<g>
</g>
<g>
</g>
<g>
</g>
<g>
</g>
<g>
</g>
<g>
</g>
<g>
</g>
<g>
</g>
<g>
</g>
<g>
</g>
<g>
</g>
<g>
</g>
</svg>
