<?xml version="1.0" encoding="iso-8859-1"?>
<!-- Generator: Adobe Illustrator 19.0.0, SVG Export Plug-In . SVG Version: 6.00 Build 0)  -->
<svg xmlns="http://www.w3.org/2000/svg" xmlns:xlink="http://www.w3.org/1999/xlink" version="1.1" id="Capa_1" x="0px" y="0px" viewBox="0 0 473.681 473.681" style="enable-background:new 0 0 473.681 473.681;" xml:space="preserve">
<g>
	<circle style="fill:#FFFFFF;" cx="236.85" cy="236.85" r="236.83"/>
	<circle style="fill:#FFFFFF;" cx="236.85" cy="236.85" r="236.83"/>
</g>
<path style="fill:#2AAADB;" d="M460.147,157.875c-0.022-0.075-0.045-0.138-0.075-0.206C429.762,72.2,351.792,9.319,258.111,0.972  c36.248,19.872,46.839,82.832,56.109,156.902c6.339,50.593,6.376,106.339,0.123,156.996c-9.196,74.47-19.831,137.875-56.232,157.83  c93.849-8.362,171.928-71.46,202.122-157.157c0.078-0.228,0.146-0.453,0.228-0.673c8.53-24.438,13.22-50.683,13.22-78.027  C473.68,209.141,468.882,182.575,460.147,157.875z"/>
<path style="fill:#45AFE3;" d="M326.419,157.875c-9.274-74.07-32.056-137.03-68.308-156.902c-7.012-0.621-14.102-0.972-21.275-0.972  c-103.03,0-190.645,65.802-223.228,157.669c-0.022,0.067-0.045,0.131-0.075,0.206C4.798,182.575,0,209.141,0,236.844  c0,27.348,4.697,53.589,13.219,78.027c0.079,0.221,0.153,0.445,0.228,0.673C45.9,407.646,133.642,473.68,236.836,473.68  c7.173,0,14.263-0.352,21.275-0.98c36.401-19.955,59.228-83.359,68.423-157.83C332.795,264.21,332.753,208.468,326.419,157.875z"/>
<g>
	<polygon style="fill:#F3F4F5;" points="230.068,75.084 240.101,105.98 272.591,105.98 246.301,125.078 256.346,155.975    230.068,136.877 203.778,155.975 213.815,125.078 187.53,105.98 220.023,105.98  "/>
	<polygon style="fill:#F3F4F5;" points="230.068,318.808 240.101,349.697 272.591,349.697 246.301,368.796 256.346,399.7    230.068,380.598 203.778,399.7 213.815,368.796 187.53,349.697 220.023,349.697  "/>
	<polygon style="fill:#F3F4F5;" points="362.203,198.206 372.236,229.103 404.726,229.103 378.436,248.201 388.481,279.098    362.203,259.996 335.913,279.098 345.951,248.201 319.665,229.103 352.158,229.103  "/>
	<polygon style="fill:#F3F4F5;" points="109.151,198.206 119.185,229.103 151.674,229.103 125.385,248.201 135.43,279.098    109.151,259.996 82.862,279.098 92.899,248.201 66.621,229.103 99.107,229.103  "/>
</g>
<g>
</g>
<g>
</g>
<g>
</g>
<g>
</g>
<g>
</g>
<g>
</g>
<g>
</g>
<g>
</g>
<g>
</g>
<g>
</g>
<g>
</g>
<g>
</g>
<g>
</g>
<g>
</g>
<g>
</g>
</svg>
