<?xml version="1.0" encoding="iso-8859-1"?>
<!-- Generator: Adobe Illustrator 19.0.0, SVG Export Plug-In . SVG Version: 6.00 Build 0)  -->
<svg xmlns="http://www.w3.org/2000/svg" xmlns:xlink="http://www.w3.org/1999/xlink" version="1.1" id="Capa_1" x="0px" y="0px" viewBox="0 0 473.68 473.68" style="enable-background:new 0 0 473.68 473.68;" xml:space="preserve">
<circle style="fill:#FFFFFF;" cx="236.85" cy="236.85" r="236.83"/>
<path style="fill:#E4E4E4;" d="M460.147,157.875H314.22c6.339,50.593,6.376,106.339,0.123,156.996h146.114  c8.53-24.438,13.219-50.683,13.219-78.027C473.68,209.141,468.882,182.575,460.147,157.875z"/>
<path style="fill:#258F44;" d="M314.22,157.875h145.923c-0.022-0.075-0.045-0.138-0.075-0.206  C429.762,72.2,351.792,9.319,258.115,0.972C294.363,20.845,304.953,83.804,314.22,157.875z"/>
<path style="fill:#D32027;" d="M258.115,472.701c93.849-8.362,171.928-71.46,202.122-157.157c0.079-0.228,0.146-0.452,0.228-0.673  H314.347C305.151,389.341,294.516,452.746,258.115,472.701z"/>
<path style="fill:#EFEFEF;" d="M326.419,157.875H189.463v156.996h137.071C332.795,264.21,332.753,208.468,326.419,157.875z"/>
<path style="fill:#359846;" d="M189.463,157.875h136.955c-9.274-74.07-32.056-137.03-68.308-156.902  C251.099,0.352,244.009,0,236.836,0C177.448,0,123.209,21.895,81.65,58.016l107.813,98.83L189.463,157.875L189.463,157.875z"/>
<path style="fill:#DB2727;" d="M189.463,315.147l-108.755,99.69c41.682,36.614,96.295,58.839,156.128,58.839  c7.173,0,14.263-0.352,21.275-0.98c36.401-19.954,59.228-83.359,68.423-157.83H189.463V315.147z"/>
<path style="fill:#151515;" d="M81.65,58.016c-30.538,26.536-54.239,60.746-68.042,99.653c-0.022,0.067-0.045,0.131-0.075,0.206  C4.798,182.575,0,209.141,0,236.844c0,27.348,4.697,53.589,13.219,78.027c0.079,0.221,0.153,0.445,0.228,0.673  c13.635,38.705,37.059,72.769,67.26,99.298l108.755-99.69v-0.277v-157v-1.028L81.65,58.016z"/>
<g>
</g>
<g>
</g>
<g>
</g>
<g>
</g>
<g>
</g>
<g>
</g>
<g>
</g>
<g>
</g>
<g>
</g>
<g>
</g>
<g>
</g>
<g>
</g>
<g>
</g>
<g>
</g>
<g>
</g>
</svg>
