<?xml version="1.0" encoding="iso-8859-1"?>
<!-- Generator: Adobe Illustrator 19.0.0, SVG Export Plug-In . SVG Version: 6.00 Build 0)  -->
<svg xmlns="http://www.w3.org/2000/svg" xmlns:xlink="http://www.w3.org/1999/xlink" version="1.1" id="Capa_1" x="0px" y="0px" viewBox="0 0 473.68 473.68" style="enable-background:new 0 0 473.68 473.68;" xml:space="preserve">
<path style="fill:#D32027;" d="M324.762,236.844H473.68C473.68,106.033,367.644,0,236.836,0  C302.242,0,324.762,118.418,324.762,236.844z"/>
<path style="fill:#DB2727;" d="M0,236.844h334.941C334.941,118.418,302.242,0,236.836,0C106.04,0,0,106.033,0,236.844z"/>
<path style="fill:#258F44;" d="M319.773,236.844c0,118.418-17.531,236.836-82.937,236.836  c130.808,0,236.844-106.036,236.844-236.836H319.773L319.773,236.844z"/>
<path style="fill:#359846;" d="M334.941,236.844H0c0,130.8,106.036,236.836,236.836,236.836  C302.242,473.68,334.941,355.262,334.941,236.844z"/>
<polygon style="fill:#F8D12E;" points="235.902,172.672 251.211,219.795 300.769,219.795 260.676,248.923 275.994,296.057   235.902,266.929 195.809,296.057 211.119,248.923 171.027,219.795 220.584,219.795 "/>
<g>
</g>
<g>
</g>
<g>
</g>
<g>
</g>
<g>
</g>
<g>
</g>
<g>
</g>
<g>
</g>
<g>
</g>
<g>
</g>
<g>
</g>
<g>
</g>
<g>
</g>
<g>
</g>
<g>
</g>
</svg>
