<?xml version="1.0" encoding="iso-8859-1"?>
<!-- Generator: Adobe Illustrator 19.0.0, SVG Export Plug-In . SVG Version: 6.00 Build 0)  -->
<svg xmlns="http://www.w3.org/2000/svg" xmlns:xlink="http://www.w3.org/1999/xlink" version="1.1" id="Capa_1" x="0px" y="0px" viewBox="0 0 473.68 473.68" style="enable-background:new 0 0 473.68 473.68;" xml:space="preserve">
<g>
	<circle style="fill:#FFFFFF;" cx="236.85" cy="236.85" r="236.83"/>
	<circle style="fill:#FFFFFF;" cx="236.85" cy="236.85" r="236.83"/>
</g>
<path style="fill:#EFECEC;" d="M460.143,157.874H314.218c6.335,50.593,6.376,106.339,0.12,156.995h146.116  c8.526-24.438,13.219-50.682,13.219-78.026C473.677,209.139,468.879,182.573,460.143,157.874z"/>
<g>
	<path style="fill:#338BC1;" d="M314.218,157.874H460.14c-0.026-0.075-0.049-0.138-0.075-0.206   C429.752,72.2,351.785,9.319,258.105,0.972C294.361,20.844,304.947,83.804,314.218,157.874z"/>
	<path style="fill:#338BC1;" d="M258.113,472.697c93.848-8.362,171.927-71.46,202.12-157.156c0.079-0.228,0.146-0.453,0.228-0.673   h-146.12C305.145,389.338,294.514,452.743,258.113,472.697z"/>
</g>
<path style="fill:#F3F2F2;" d="M0,236.842c0,27.348,4.693,53.588,13.219,78.026h313.313c6.256-50.66,6.215-106.402-0.12-156.995  H13.534C4.798,182.573,0,209.139,0,236.842z"/>
<g>
	<path style="fill:#3D91CF;" d="M13.608,157.668c-0.026,0.067-0.049,0.131-0.075,0.206h312.879   c-9.27-74.07-32.052-137.029-68.303-156.901C251.097,0.352,244.007,0,236.835,0C133.806,0,46.187,65.802,13.608,157.668z"/>
	<path style="fill:#3D91CF;" d="M326.532,314.868H13.219c0.079,0.221,0.15,0.445,0.228,0.673   c32.452,92.102,120.19,158.135,223.387,158.135c7.173,0,14.263-0.352,21.274-0.98C294.514,452.743,317.336,389.338,326.532,314.868   z"/>
	<polygon style="fill:#3D91CF;" points="122.89,168.172 129.961,189.937 152.855,189.937 134.333,203.399 141.408,225.171    122.89,211.708 104.368,225.171 111.439,203.399 92.921,189.937 115.815,189.937  "/>
	<polygon style="fill:#3D91CF;" points="122.89,244.606 129.961,266.37 152.855,266.37 134.333,279.832 141.408,301.604    122.89,288.145 104.368,301.604 111.439,279.832 92.921,266.37 115.815,266.37  "/>
	<polygon style="fill:#3D91CF;" points="236.296,206.129 243.364,227.901 266.258,227.901 247.736,241.356 254.811,263.128    236.296,249.676 217.77,263.128 224.842,241.356 206.324,227.901 229.217,227.901  "/>
</g>
<g>
	<path style="fill:#338BC1;" d="M336.098,203.399l-5.168,15.916c0.041,1.477,0.041,2.951,0.071,4.428l16.551-12.03l18.515,13.462   l-7.075-21.772l18.522-13.462H354.62l-7.072-21.764l-7.079,21.764h-10.998c0.221,3.033,0.445,6.047,0.621,9.102L336.098,203.399z"/>
	<path style="fill:#338BC1;" d="M329.026,225.171l1.971-1.432c-0.03-1.477-0.03-2.951-0.071-4.428L329.026,225.171z"/>
</g>
<path style="fill:#3D91CF;" d="M330.096,199.039c-0.176-3.051-0.4-6.069-0.621-9.102H317.58L330.096,199.039z"/>
<path style="fill:#338BC1;" d="M354.62,266.37l-7.072-21.764l-7.079,21.764h-10.003c-0.135,3.033-0.224,6.069-0.396,9.08  l6.028,4.383l-7.072,21.772l18.522-13.462l18.515,13.462l-7.075-21.772l18.522-13.462L354.62,266.37L354.62,266.37z"/>
<path style="fill:#3D91CF;" d="M317.58,266.37l12.494,9.08c0.176-3.01,0.262-6.047,0.396-9.08H317.58z"/>
<g>
</g>
<g>
</g>
<g>
</g>
<g>
</g>
<g>
</g>
<g>
</g>
<g>
</g>
<g>
</g>
<g>
</g>
<g>
</g>
<g>
</g>
<g>
</g>
<g>
</g>
<g>
</g>
<g>
</g>
</svg>
