<?xml version="1.0" encoding="iso-8859-1"?>
<!-- Generator: Adobe Illustrator 19.0.0, SVG Export Plug-In . SVG Version: 6.00 Build 0)  -->
<svg xmlns="http://www.w3.org/2000/svg" xmlns:xlink="http://www.w3.org/1999/xlink" version="1.1" id="Capa_1" x="0px" y="0px" viewBox="0 0 473.68 473.68" style="enable-background:new 0 0 473.68 473.68;" xml:space="preserve">
<g>
	<circle style="fill:#FFFFFF;" cx="236.85" cy="236.85" r="236.83"/>
	<circle style="fill:#FFFFFF;" cx="236.85" cy="236.85" r="236.83"/>
</g>
<path style="fill:#258F44;" d="M460.143,157.874c-0.026-0.075-0.049-0.138-0.075-0.206C429.756,72.2,351.789,9.319,258.109,0.972  c36.248,19.872,46.834,82.832,56.109,156.901c6.335,50.593,6.376,106.339,0.12,156.995c-9.196,74.47-19.827,137.874-56.228,157.829  c93.848-8.362,171.927-71.46,202.12-157.156c0.079-0.228,0.146-0.453,0.228-0.673c8.526-24.438,13.219-50.682,13.219-78.026  C473.677,209.139,468.879,182.573,460.143,157.874z"/>
<path style="fill:#359846;" d="M326.412,157.874c-9.27-74.07-32.052-137.029-68.303-156.901C251.097,0.352,244.007,0,236.835,0  C133.806,0,46.187,65.802,13.608,157.668c-0.026,0.067-0.049,0.131-0.075,0.206C4.798,182.573,0,209.139,0,236.842  c0,27.348,4.693,53.588,13.219,78.026c0.079,0.221,0.15,0.445,0.228,0.673c32.452,92.102,120.19,158.135,223.387,158.135  c7.173,0,14.263-0.352,21.274-0.98c36.401-19.954,59.227-83.359,68.423-157.829C332.788,264.208,332.747,208.466,326.412,157.874z"/>
<g>
	<path style="fill:#F8D12E;" d="M239.411,309.711c-66.46,0-121.259-49.811-129.184-114.132c-0.651,5.273-1.021,10.628-1.021,16.076   c0,71.912,58.296,130.204,130.204,130.204s130.204-58.292,130.204-130.204c0-5.449-0.374-10.804-1.021-16.076   C360.667,259.9,305.871,309.711,239.411,309.711z"/>
	<polygon style="fill:#F8D12E;" points="236.607,143.85 247.388,177.046 282.297,177.046 254.055,197.562 264.84,230.765    236.607,210.243 208.362,230.765 219.147,197.562 190.905,177.046 225.818,177.046  "/>
</g>
<g>
</g>
<g>
</g>
<g>
</g>
<g>
</g>
<g>
</g>
<g>
</g>
<g>
</g>
<g>
</g>
<g>
</g>
<g>
</g>
<g>
</g>
<g>
</g>
<g>
</g>
<g>
</g>
<g>
</g>
</svg>
