<?xml version="1.0" encoding="iso-8859-1"?>
<!-- Generator: Adobe Illustrator 19.0.0, SVG Export Plug-In . SVG Version: 6.00 Build 0)  -->
<svg xmlns="http://www.w3.org/2000/svg" xmlns:xlink="http://www.w3.org/1999/xlink" version="1.1" id="Capa_1" x="0px" y="0px" viewBox="0 0 473.684 473.684" style="enable-background:new 0 0 473.684 473.684;" xml:space="preserve">
<path style="fill:#D32027;" d="M306.15,236.842H473.68C473.68,106.032,367.645,0,236.838,0C302.243,0,306.15,118.425,306.15,236.842  z"/>
<path style="fill:#258F44;" d="M290.639,236.842c0,118.425-53.801,236.842-53.801,236.842  c130.807,0,236.842-106.043,236.842-236.842H290.639z"/>
<path style="fill:#DB2727;" d="M61.838,236.842h273.105C334.941,118.425,302.243,0,236.838,0  C106.042,0,61.838,106.032,61.838,236.842z"/>
<path style="fill:#359846;" d="M334.941,236.842H66.825c0,130.799,39.213,236.842,170.012,236.842  C302.243,473.684,334.941,355.267,334.941,236.842z"/>
<path style="fill:#EFECEC;" d="M177.196,7.588C75.269,34.03,0.003,126.633,0.003,236.842c0,110.202,75.274,202.812,177.2,229.255  V7.588H177.196z"/>
<g>
</g>
<g>
</g>
<g>
</g>
<g>
</g>
<g>
</g>
<g>
</g>
<g>
</g>
<g>
</g>
<g>
</g>
<g>
</g>
<g>
</g>
<g>
</g>
<g>
</g>
<g>
</g>
<g>
</g>
</svg>
