<?xml version="1.0" encoding="iso-8859-1"?>
<!-- Generator: Adobe Illustrator 19.0.0, SVG Export Plug-In . SVG Version: 6.00 Build 0)  -->
<svg xmlns="http://www.w3.org/2000/svg" xmlns:xlink="http://www.w3.org/1999/xlink" version="1.1" id="Capa_1" x="0px" y="0px" viewBox="0 0 473.77 473.77" style="enable-background:new 0 0 473.77 473.77;" xml:space="preserve">
<circle style="fill:#FFFFFF;" cx="236.94" cy="236.898" r="236.83"/>
<path style="fill:#F3C515;" d="M460.241,157.914H314.315c6.331,50.593,6.376,106.339,0.116,156.995h146.12  c8.523-24.438,13.219-50.682,13.219-78.026C473.774,209.18,468.976,182.614,460.241,157.914z"/>
<g>
	<path style="fill:#2AAADB;" d="M314.315,157.914h145.922c-0.03-0.075-0.052-0.138-0.075-0.206   C429.845,72.241,351.883,9.36,258.203,1.013C294.458,20.885,305.041,83.845,314.315,157.914z"/>
	<path style="fill:#2AAADB;" d="M258.206,472.738c93.848-8.362,171.927-71.46,202.12-157.156c0.075-0.228,0.146-0.453,0.228-0.673   H314.431C305.235,389.379,294.611,452.783,258.206,472.738z"/>
</g>
<path style="fill:#F8D12E;" d="M0.097,236.883c0,27.348,4.689,53.588,13.219,78.026h313.313  c6.253-50.66,6.215-106.402-0.123-156.995H13.631C4.895,182.614,0.097,209.18,0.097,236.883z"/>
<g>
	<path style="fill:#45AFE3;" d="M13.702,157.709c-0.03,0.067-0.052,0.131-0.075,0.206h312.875   c-9.27-74.07-32.048-137.029-68.3-156.901c-7.012-0.621-14.102-0.972-21.274-0.972C133.903,0.041,46.277,65.842,13.702,157.709z"/>
	<path style="fill:#45AFE3;" d="M326.629,314.909H13.317c0.079,0.221,0.146,0.445,0.228,0.673   c32.452,92.102,120.186,158.135,223.387,158.135c7.173,0,14.263-0.351,21.274-0.98   C294.611,452.783,317.434,389.379,326.629,314.909z"/>
</g>
<path style="fill:#151515;" d="M236.835,237.403L28.208,125.208H28.2C10.209,158.602,0,196.806,0,237.403  c0,40.245,10.063,78.138,27.785,111.327l209.05-111.29"/>
<g>
</g>
<g>
</g>
<g>
</g>
<g>
</g>
<g>
</g>
<g>
</g>
<g>
</g>
<g>
</g>
<g>
</g>
<g>
</g>
<g>
</g>
<g>
</g>
<g>
</g>
<g>
</g>
<g>
</g>
</svg>
