<?xml version="1.0" encoding="iso-8859-1"?>
<!-- Generator: Adobe Illustrator 19.0.0, SVG Export Plug-In . SVG Version: 6.00 Build 0)  -->
<svg xmlns="http://www.w3.org/2000/svg" xmlns:xlink="http://www.w3.org/1999/xlink" version="1.1" id="Capa_1" x="0px" y="0px" viewBox="0 0 473.681 473.681" style="enable-background:new 0 0 473.681 473.681;" xml:space="preserve">
<circle style="fill:#FFFFFF;" cx="236.85" cy="236.85" r="236.83"/>
<path style="fill:#163D68;" d="M302.984,118.674h139.078c-38.6-66.89-108.908-113.13-190.415-118.171h-7.831  C282.716,5.72,288.994,54.364,302.984,118.674z"/>
<path style="fill:#EFECEC;" d="M309.061,236.822h164.62c-0.004-43.043-11.548-83.366-31.614-118.148H297.274  C305.127,154.773,309.061,195.794,309.061,236.822z"/>
<path style="fill:#359846;" d="M297.375,354.984H442.07c20.067-34.782,31.607-75.098,31.607-118.141v-0.007H309.154  C309.154,277.871,305.224,318.879,297.375,354.984z"/>
<path style="fill:#FFD72E;" d="M243.353,473.249h7.24c81.923-4.689,152.642-51.03,191.421-118.163H292.233  C278.183,419.616,282.495,468.368,243.353,473.249z"/>
<path style="fill:#14477D;" d="M31.614,118.674h291.537C309.166,54.364,282.716,5.72,243.816,0.503h-21.79  C140.522,5.544,70.214,51.784,31.614,118.674z"/>
<path style="fill:#EFEFEF;" d="M31.614,118.674C11.548,153.453,0.004,193.779,0,236.822h334.935  c0-41.027-3.934-82.043-11.783-118.148H31.614z"/>
<path style="fill:#3DA248;" d="M0,236.837v0.007c0,43.043,11.54,83.363,31.607,118.141h291.548  c7.853-36.102,11.78-77.114,11.78-118.148H0L0,236.837z"/>
<path style="fill:#F8D544;" d="M223.081,473.249h20.272c39.142-4.88,65.73-53.633,79.78-118.163H31.667  C70.439,422.215,141.158,468.559,223.081,473.249z"/>
<polygon style="fill:#FFFFFF;" points="155.028,23.965 165.192,55.239 198.085,55.239 171.474,74.573 181.639,105.854   155.028,86.521 128.417,105.854 138.585,74.573 111.97,55.239 144.864,55.239 "/>
<path style="fill:#DF1E26;" d="M236.835,0.002c-10.748,0-21.308,0.782-31.682,2.169V471.51c10.37,1.38,20.934,2.169,31.682,2.169  c10.59,0,20.994-0.767,31.222-2.109V2.111C257.829,0.768,247.425,0.002,236.835,0.002z"/>
<g>
</g>
<g>
</g>
<g>
</g>
<g>
</g>
<g>
</g>
<g>
</g>
<g>
</g>
<g>
</g>
<g>
</g>
<g>
</g>
<g>
</g>
<g>
</g>
<g>
</g>
<g>
</g>
<g>
</g>
</svg>
