<?xml version="1.0" encoding="iso-8859-1"?>
<!-- Generator: Adobe Illustrator 19.0.0, SVG Export Plug-In . SVG Version: 6.00 Build 0)  -->
<svg xmlns="http://www.w3.org/2000/svg" xmlns:xlink="http://www.w3.org/1999/xlink" version="1.1" id="Capa_1" x="0px" y="0px" viewBox="0 0 473.677 473.677" style="enable-background:new 0 0 473.677 473.677;" xml:space="preserve">
<path style="fill:#D32027;" d="M236.842,0l-0.007,473.677c130.807,0,236.842-106.036,236.842-236.835  C473.677,106.032,367.649,0,236.842,0z"/>
<g>
	<polygon style="fill:#EFECEC;" points="0,236.835 0,236.842 236.842,236.835  "/>
	<path style="fill:#EFECEC;" d="M236.842,0L236.842,0L236.842,0z"/>
</g>
<path style="fill:#DB2727;" d="M236.842,0L236.842,0v236.835L0,236.842c0,130.799,106.043,236.835,236.835,236.835  C367.641,473.677,367.649,0.007,236.842,0z"/>
<g>
	<path style="fill:#EFECEC;" d="M236.842,0h-0.007H236.842z"/>
	<path style="fill:#EFECEC;" d="M236.835,0C106.043,0,0.007,106.032,0,236.835h236.842L236.835,0z"/>
	<polygon style="fill:#EFECEC;" points="236.842,0 236.835,0 236.842,236.835  "/>
</g>
<g>
	<rect x="114.14" y="69.59" style="fill:#D32027;" width="44.875" height="134.62"/>
	<rect x="69.26" y="114.47" style="fill:#D32027;" width="134.62" height="44.875"/>
</g>
<g>
</g>
<g>
</g>
<g>
</g>
<g>
</g>
<g>
</g>
<g>
</g>
<g>
</g>
<g>
</g>
<g>
</g>
<g>
</g>
<g>
</g>
<g>
</g>
<g>
</g>
<g>
</g>
<g>
</g>
</svg>
