<?xml version="1.0" encoding="iso-8859-1"?>
<!-- Generator: Adobe Illustrator 19.0.0, SVG Export Plug-In . SVG Version: 6.00 Build 0)  -->
<svg xmlns="http://www.w3.org/2000/svg" xmlns:xlink="http://www.w3.org/1999/xlink" version="1.1" id="Capa_1" x="0px" y="0px" viewBox="0 0 473.684 473.684" style="enable-background:new 0 0 473.684 473.684;" xml:space="preserve">
<g>
	<circle style="fill:#FFFFFF;" cx="236.851" cy="236.85" r="236.83"/>
	<path style="fill:#FFFFFF;" d="M236.839,0c-0.722,0-1.44,0.052-2.161,0.06h4.33C238.286,0.052,237.568,0,236.839,0z"/>
	<path style="fill:#FFFFFF;" d="M236.839,473.684c1.357,0,2.696-0.079,4.046-0.101h-8.085   C234.15,473.606,235.489,473.684,236.839,473.684z"/>
</g>
<path style="fill:#0B0B0B;" d="M446.766,127.205H293.115c5.441,27.688,40.47,57.926,41.479,88.662l23.088-6.383l-20.829,26.14  l18.429,27.879l-20.635-7.726c-0.927,31.412-35.956,62.369-41.517,90.662h153.659c17.15-32.781,26.891-70.038,26.891-109.596  C473.68,197.27,463.923,159.99,446.766,127.205z"/>
<path style="fill:#151515;" d="M0.003,236.842c0,39.557,9.749,76.815,26.899,109.596h298.022c5.557-28.294,8.795-59.25,9.723-90.662  l-10.665-3.994l-20.829,26.14l1.481-33.394l-31.289-11.731l32.216-8.904l1.481-33.387l18.421,27.879l9.128-2.52  c-1.01-30.736-4.244-60.974-9.685-88.662H26.924C9.759,159.99,0.003,197.27,0.003,236.842z"/>
<path style="fill:#CD2027;" d="M304.348,127.205h142.418C407.516,52.216,329.322,0.871,239.008,0.06h-1.204  C281.757,0.856,290.227,55.387,304.348,127.205z"/>
<path style="fill:#E61E25;" d="M26.924,127.205h297.984C310.799,55.387,281.757,0.856,237.803,0.06h-3.126  C144.366,0.868,66.167,52.216,26.924,127.205z"/>
<path style="fill:#208943;" d="M238.645,473.583h2.244c89.529-1.503,166.938-52.661,205.905-127.146H311.831  C297.804,417.819,282.135,472.106,238.645,473.583z"/>
<path style="fill:#269D49;" d="M324.923,346.438H26.903C65.868,420.923,143.266,472.08,232.8,473.584h5.845  C282.135,472.106,310.9,417.819,324.923,346.438z"/>
<g>
	<path style="fill:#EFECEC;" d="M334.642,255.776l20.635,7.726l-18.429-27.879l20.829-26.14l-23.088,6.383   C335.024,229.135,335.039,242.496,334.642,255.776z"/>
	<path style="fill:#EFECEC;" d="M307.044,190.505l-1.481,33.387l-32.216,8.904l31.289,11.731l-1.481,33.394l20.829-26.14   l10.665,3.994c0.393-13.279,0.381-26.637-0.052-39.909l-9.128,2.52L307.044,190.505z"/>
	<path style="fill:#EFECEC;" d="M188.628,236.128c0-38.821,31.465-70.293,70.293-70.293c13.059,0,25.287,3.571,35.762,9.779   c-15.373-15.194-36.491-24.576-59.811-24.576c-46.991,0-85.09,38.091-85.09,85.09c0,46.984,38.099,85.09,85.09,85.09   c23.32,0,44.437-9.394,59.811-24.584c-10.475,6.2-22.699,9.779-35.762,9.779C220.092,306.413,188.628,274.945,188.628,236.128z"/>
</g>
<g>
</g>
<g>
</g>
<g>
</g>
<g>
</g>
<g>
</g>
<g>
</g>
<g>
</g>
<g>
</g>
<g>
</g>
<g>
</g>
<g>
</g>
<g>
</g>
<g>
</g>
<g>
</g>
<g>
</g>
</svg>
