<?xml version="1.0" encoding="iso-8859-1"?>
<!-- Generator: Adobe Illustrator 19.0.0, SVG Export Plug-In . SVG Version: 6.00 Build 0)  -->
<svg xmlns="http://www.w3.org/2000/svg" xmlns:xlink="http://www.w3.org/1999/xlink" version="1.1" id="Capa_1" x="0px" y="0px" viewBox="0 0 473.725 473.725" style="enable-background:new 0 0 473.725 473.725;" xml:space="preserve">
<g>
	<path style="fill:#FFFFFF;" d="M217.269,45.554c-2.569,0-5.108,0.108-7.655,0.191h15.314   C222.378,45.667,219.835,45.554,217.269,45.554z"/>
	<circle style="fill:#FFFFFF;" cx="236.88" cy="236.87" r="236.83"/>
	<circle style="fill:#FFFFFF;" cx="236.88" cy="236.87" r="236.83"/>
</g>
<path style="fill:#DE2126;" d="M307.217,284.099h161.789c3.089-15.265,4.719-31.057,4.719-47.235  c0-16.207-1.638-32.022-4.734-47.313H307.217C309.558,220.695,309.558,252.955,307.217,284.099z"/>
<path style="fill:#EFECEC;" d="M468.946,189.307c-7.098-34.827-21.839-66.867-42.384-94.301h-135.29  c8.07,28.163,13.38,60.547,15.946,94.301H468.946z"/>
<g>
	<path style="fill:#DE2126;" d="M291.272,94.76h135.092C384.585,39.141,318.881,2.579,244.542,0.212h-4.259   C276.044,2.519,275.771,40.798,291.272,94.76z"/>
	<path style="fill:#DE2126;" d="M236.88,473.699c77.282,0,145.903-37.029,189.133-94.293H291.272   C275.263,434.834,274.335,473.699,236.88,473.699z"/>
</g>
<path style="fill:#EFECEC;" d="M426.416,378.894c20.684-27.557,35.496-59.766,42.583-94.783h-161.71  c-2.558,33.933-7.894,66.493-16.017,94.783H426.416z"/>
<path style="fill:#FFFFFF;" d="M236.88,473.699c-77.275,0-145.896-37.029-189.118-94.293h269.287  c0.052-0.168,0.094-0.344,0.146-0.512H47.358c-20.684-27.557-35.496-59.766-42.586-94.779h328.439c0-0.007,0-0.007,0-0.015H4.772  c-3.089-15.265-4.727-31.057-4.727-47.235c0-16.207,1.638-32.022,4.742-47.313h328.417c-0.007-0.079-0.015-0.161-0.015-0.239H4.828  c7.098-34.827,21.832-66.867,42.384-94.301h270.031c-0.022-0.079-0.045-0.168-0.075-0.247H47.41  C89.189,39.145,154.886,2.583,229.225,0.216h11.058c-1.133-0.075-2.251-0.191-3.403-0.191"/>
<path style="fill:#E73B36;" d="M0.045,236.865c0,16.177,1.638,31.97,4.727,47.235h328.439c2.345-31.143,2.345-63.404-0.007-94.548  H4.783C1.679,204.845,0.045,220.656,0.045,236.865z"/>
<path style="fill:#EFEFEF;" d="M4.828,189.307h328.361c-2.565-33.75-7.872-66.138-15.946-94.301H47.212  C26.659,122.44,11.929,154.484,4.828,189.307z"/>
<g>
	<path style="fill:#E73B36;" d="M47.41,94.76h269.762c-15.501-53.962-41.128-92.24-76.889-94.548h-11.058   C154.886,2.579,89.189,39.141,47.41,94.76z"/>
	<path style="fill:#E73B36;" d="M236.88,473.699c37.456,0,64.164-38.865,80.169-94.293H47.762   C90.984,436.67,159.605,473.699,236.88,473.699z"/>
</g>
<path style="fill:#EFEFEF;" d="M47.358,378.894h269.833c8.122-28.286,13.462-60.847,16.017-94.783H4.772  C11.862,319.128,26.674,351.337,47.358,378.894z"/>
<path style="fill:#2A7CBB;" d="M236.842,236.871L28.215,124.684l-0.007-0.007C10.209,158.072,0,196.274,0,236.871  c0,40.253,10.071,78.138,27.785,111.331L236.842,236.91"/>
<polygon style="fill:#FFFFFF;" points="72.66,177.98 85.03,216.057 125.066,216.057 92.678,239.582 105.052,277.656 72.66,254.13   40.275,277.656 52.646,239.582 20.254,216.057 60.293,216.057 "/>
<g>
</g>
<g>
</g>
<g>
</g>
<g>
</g>
<g>
</g>
<g>
</g>
<g>
</g>
<g>
</g>
<g>
</g>
<g>
</g>
<g>
</g>
<g>
</g>
<g>
</g>
<g>
</g>
<g>
</g>
</svg>
