<?xml version="1.0" encoding="iso-8859-1"?>
<!-- Generator: Adobe Illustrator 19.0.0, SVG Export Plug-In . SVG Version: 6.00 Build 0)  -->
<svg xmlns="http://www.w3.org/2000/svg" xmlns:xlink="http://www.w3.org/1999/xlink" version="1.1" id="Capa_1" x="0px" y="0px" viewBox="0 0 473.685 473.685" style="enable-background:new 0 0 473.685 473.685;" xml:space="preserve">
<g>
	<path style="fill:#D32027;" d="M278.168,65.443h122.026C357.694,24.928,300.198,0,236.84,0C267.383,0,261.886,25.84,278.168,65.443   z"/>
	<path style="fill:#D32027;" d="M236.84,473.684c63.356,0,120.852-24.928,163.356-65.443H266.949   C250.673,447.844,267.387,473.684,236.84,473.684z"/>
</g>
<g>
	<path style="fill:#EFECEC;" d="M445.776,348.409H299.353c-4.416,21.948-10.217,42.253-17.445,59.833h118.286   C418.372,390.909,433.824,370.745,445.776,348.409z"/>
	<path style="fill:#EFECEC;" d="M293.126,125.276h152.649c-11.952-22.336-27.404-42.5-45.582-59.833H275.681   C282.906,83.015,288.706,103.328,293.126,125.276z"/>
</g>
<path style="fill:#163D68;" d="M263.21,348.409h182.566c17.789-33.249,27.905-71.22,27.905-111.566s-10.116-78.318-27.905-111.566  H263.21C277.08,194.218,277.08,279.462,263.21,348.409z"/>
<g>
	<path style="fill:#E73B36;" d="M307.072,408.242H73.49c42.5,40.515,99.996,65.443,163.348,65.443   C267.387,473.684,290.797,447.844,307.072,408.242z"/>
	<path style="fill:#E73B36;" d="M307.072,65.443C290.789,25.84,267.383,0,236.84,0C173.492,0,115.994,24.928,73.49,65.443H307.072z"/>
</g>
<g>
	<path style="fill:#F3F4F5;" d="M307.072,65.443H73.49c-18.178,17.333-33.63,37.497-45.582,59.833h296.608   C320.1,103.328,314.3,83.015,307.072,65.443z"/>
	<path style="fill:#F3F4F5;" d="M73.49,408.242h233.581c7.229-17.58,13.029-37.886,17.445-59.833H27.91   C39.861,370.745,55.313,390.909,73.49,408.242z"/>
</g>
<path style="fill:#14477D;" d="M324.516,125.276H27.91C10.12,158.525,0.003,196.496,0.003,236.842s10.116,78.318,27.905,111.566  h296.608C338.387,279.462,338.387,194.218,324.516,125.276z"/>
<g>
</g>
<g>
</g>
<g>
</g>
<g>
</g>
<g>
</g>
<g>
</g>
<g>
</g>
<g>
</g>
<g>
</g>
<g>
</g>
<g>
</g>
<g>
</g>
<g>
</g>
<g>
</g>
<g>
</g>
</svg>
