<?xml version="1.0" encoding="iso-8859-1"?>
<!-- Generator: Adobe Illustrator 19.0.0, SVG Export Plug-In . SVG Version: 6.00 Build 0)  -->
<svg xmlns="http://www.w3.org/2000/svg" xmlns:xlink="http://www.w3.org/1999/xlink" version="1.1" id="Capa_1" x="0px" y="0px" viewBox="0 0 473.719 473.719" style="enable-background:new 0 0 473.719 473.719;" xml:space="preserve">
<path style="fill:#14477D;" d="M0.021,236.842c0-40.593,10.209-78.8,28.204-112.195l445.473,112.195L33.479,358.274  C12.234,322.766,0.021,281.227,0.021,236.842z"/>
<path style="fill:#EFECEC;" d="M334.956,236.842h138.742C473.697,106.032,367.662,0,236.855,0  C302.257,0,334.956,118.421,334.956,236.842z"/>
<path style="fill:#D32027;" d="M236.855,473.681c-1.399,0-2.764-0.022-4.147-0.037c1.384,0.03,2.76,0.075,4.147,0.075  c130.807,0,236.842-106.032,236.842-236.838H334.956C334.952,355.286,302.249,473.681,236.855,473.681z"/>
<path style="fill:#F3F4F5;" d="M28.228,124.647l208.631,112.195h98.097C334.956,118.421,302.257,0,236.855,0  C146.646,0,68.215,50.432,28.228,124.647z"/>
<path style="fill:#DB2F2A;" d="M334.956,236.88h-98.097L27.757,348.195c39.232,73.55,116.14,123.926,204.951,125.451  c1.384,0.015,2.749,0.037,4.147,0.037C302.249,473.681,334.952,355.286,334.956,236.88z"/>
<g>
</g>
<g>
</g>
<g>
</g>
<g>
</g>
<g>
</g>
<g>
</g>
<g>
</g>
<g>
</g>
<g>
</g>
<g>
</g>
<g>
</g>
<g>
</g>
<g>
</g>
<g>
</g>
<g>
</g>
</svg>
