<?xml version="1.0" encoding="iso-8859-1"?>
<!-- Generator: Adobe Illustrator 19.0.0, SVG Export Plug-In . SVG Version: 6.00 Build 0)  -->
<svg xmlns="http://www.w3.org/2000/svg" xmlns:xlink="http://www.w3.org/1999/xlink" version="1.1" id="Capa_1" x="0px" y="0px" viewBox="0 0 473.684 473.684" style="enable-background:new 0 0 473.684 473.684;" xml:space="preserve">
<path style="fill:#EFECEC;" d="M334.938,236.842H473.68C473.68,106.032,367.645,0,236.838,0  C302.24,0,334.938,118.421,334.938,236.842z"/>
<path style="fill:#DB2F2A;" d="M290.635,236.842c0,118.425-53.798,236.842-53.798,236.842  c130.807,0,236.842-106.043,236.842-236.842H290.635z"/>
<path style="fill:#F3F4F5;" d="M0.003,236.842h334.935C334.938,118.421,302.24,0,236.838,0C106.038,0,0.003,106.032,0.003,236.842z"/>
<path style="fill:#E13E3E;" d="M334.938,236.842H0.003c0,130.799,106.036,236.842,236.835,236.842  C302.24,473.684,334.938,355.267,334.938,236.842z"/>
<path style="fill:#3757A6;" d="M177.2,7.584C75.273,34.026,0.003,126.633,0.003,236.842H177.2V7.584z"/>
<polygon style="fill:#FFFFFF;" points="101.315,89.428 113.682,127.501 153.719,127.501 121.329,151.03 133.704,189.103   101.315,165.573 68.927,189.103 81.297,151.03 48.91,127.501 88.945,127.501 "/>
<g>
</g>
<g>
</g>
<g>
</g>
<g>
</g>
<g>
</g>
<g>
</g>
<g>
</g>
<g>
</g>
<g>
</g>
<g>
</g>
<g>
</g>
<g>
</g>
<g>
</g>
<g>
</g>
<g>
</g>
</svg>
