<?xml version="1.0" encoding="iso-8859-1"?>
<!-- Generator: Adobe Illustrator 19.0.0, SVG Export Plug-In . SVG Version: 6.00 Build 0)  -->
<svg xmlns="http://www.w3.org/2000/svg" xmlns:xlink="http://www.w3.org/1999/xlink" version="1.1" id="Capa_1" x="0px" y="0px" viewBox="0 0 476.868 476.868" style="enable-background:new 0 0 476.868 476.868;" xml:space="preserve">
<g>
	<path style="fill:#D32027;" d="M280.038,65.882h122.846C360.098,25.096,302.216,0,238.43,0C269.18,0,263.646,26.014,280.038,65.882   z"/>
	<path style="fill:#D32027;" d="M238.43,476.868c63.782,0,121.664-25.096,164.454-65.882h-134.14   C252.356,450.854,269.184,476.868,238.43,476.868z"/>
</g>
<g>
	<path style="fill:#EFECEC;" d="M448.772,350.75H301.365c-4.446,22.095-10.285,42.537-17.562,60.235h119.081   C421.184,393.54,436.74,373.237,448.772,350.75z"/>
	<path style="fill:#EFECEC;" d="M295.096,126.118h153.675c-12.032-22.487-27.588-42.786-45.888-60.235h-125.35   C284.808,83.576,290.647,104.023,295.096,126.118z"/>
</g>
<path style="fill:#163D68;" d="M264.979,350.75h183.793c17.909-33.472,28.092-71.699,28.092-112.316s-10.184-78.844-28.092-112.316  H264.979C278.942,195.524,278.942,281.34,264.979,350.75z"/>
<g>
	<path style="fill:#E73B36;" d="M309.135,410.985H73.984c42.786,40.787,100.668,65.882,164.446,65.882   C269.184,476.868,292.751,450.854,309.135,410.985z"/>
	<path style="fill:#E73B36;" d="M309.135,65.882C292.743,26.014,269.18,0,238.43,0C174.656,0,116.774,25.096,73.984,65.882H309.135z   "/>
</g>
<g>
	<path style="fill:#F3F4F5;" d="M309.135,65.882H73.984c-18.3,17.449-33.856,37.749-45.888,60.235h298.601   C322.251,104.023,316.412,83.576,309.135,65.882z"/>
	<path style="fill:#F3F4F5;" d="M73.984,410.985h235.151c7.277-17.698,13.116-38.14,17.562-60.235H28.096   C40.128,373.237,55.684,393.54,73.984,410.985z"/>
</g>
<path style="fill:#14477D;" d="M326.697,126.118H28.096C10.187,159.59,0.004,197.816,0.004,238.434s10.184,78.844,28.092,112.316  h298.601C340.661,281.34,340.661,195.524,326.697,126.118z"/>
<g>
</g>
<g>
</g>
<g>
</g>
<g>
</g>
<g>
</g>
<g>
</g>
<g>
</g>
<g>
</g>
<g>
</g>
<g>
</g>
<g>
</g>
<g>
</g>
<g>
</g>
<g>
</g>
<g>
</g>
</svg>
