<?xml version="1.0" encoding="iso-8859-1"?>
<!-- Generator: Adobe Illustrator 19.0.0, SVG Export Plug-In . SVG Version: 6.00 Build 0)  -->
<svg xmlns="http://www.w3.org/2000/svg" xmlns:xlink="http://www.w3.org/1999/xlink" version="1.1" id="Capa_1" x="0px" y="0px" viewBox="0 0 473.684 473.684" style="enable-background:new 0 0 473.684 473.684;" xml:space="preserve">
<circle style="fill:#FFFFFF;" cx="236.85" cy="236.85" r="236.83"/>
<path style="fill:#2B479D;" d="M460.145,157.877c-0.03-0.075-0.052-0.138-0.075-0.206C429.754,72.204,351.791,9.327,258.115,0.976  c36.248,19.872,46.831,82.835,56.109,156.901c6.331,50.593,6.376,106.339,0.116,156.995c-9.196,74.47-19.824,137.874-56.225,157.829  c93.848-8.362,171.927-71.46,202.12-157.156c0.075-0.228,0.146-0.452,0.228-0.673c8.523-24.442,13.219-50.682,13.219-78.03  C473.679,209.143,468.881,182.581,460.145,157.877z"/>
<path style="fill:#3757A6;" d="M326.411,157.877c-9.27-74.066-32.048-137.029-68.3-156.901C251.099,0.355,244.009,0,236.837,0  C133.808,0,46.186,65.805,13.61,157.672c-0.03,0.067-0.052,0.135-0.075,0.206C4.8,182.581,0.002,209.143,0.002,236.846  c0,27.348,4.689,53.588,13.219,78.03c0.079,0.221,0.146,0.445,0.228,0.673c32.452,92.098,120.186,158.135,223.387,158.135  c7.173,0,14.263-0.352,21.274-0.98c36.401-19.954,59.227-83.359,68.423-157.829C332.787,264.216,332.749,208.474,326.411,157.877z"/>
<path style="fill:#FFD72E;" d="M331.167,285.748c2.008-34.142,1.855-69.1-0.381-103.145H224.72V0.31  c-37.321,1.877-72.338,12.442-103.145,29.64v152.653H6.314c-4.084,17.426-6.312,35.567-6.312,54.239  c0,16.768,1.769,33.118,5.082,48.906h116.488v157.986c30.807,17.198,65.824,27.759,103.145,29.64V285.748H331.167z"/>
<path style="fill:#FFD00A;" d="M467.363,182.603h-99.076h-48.719c2.236,34.045,2.39,69.003,0.381,103.145h48.715h99.933  c3.317-15.785,5.082-32.138,5.082-48.906C473.679,218.17,471.45,200.03,467.363,182.603z"/>
<path style="fill:#BE2126;" d="M469.662,193.579H308.423c1.784,27.157,1.907,55.039,0.307,82.271h161.699  c2.117-12.688,3.25-25.713,3.25-39.008C473.679,222.056,472.269,207.61,469.662,193.579z"/>
<path style="fill:#D32027;" d="M329.75,193.579H215.241V1.01c-29.296,2.648-57.036,10.639-82.271,22.983v169.59H4.011  c-2.606,14.027-4.009,28.477-4.009,43.263c0,13.294,1.126,26.319,3.242,39.007h129.722v173.838  c25.235,12.348,52.975,20.336,82.271,22.983V275.85h114.816C331.657,248.618,331.53,220.736,329.75,193.579z"/>
<g>
</g>
<g>
</g>
<g>
</g>
<g>
</g>
<g>
</g>
<g>
</g>
<g>
</g>
<g>
</g>
<g>
</g>
<g>
</g>
<g>
</g>
<g>
</g>
<g>
</g>
<g>
</g>
<g>
</g>
</svg>
