<?xml version="1.0" encoding="iso-8859-1"?>
<!-- Generator: Adobe Illustrator 19.0.0, SVG Export Plug-In . SVG Version: 6.00 Build 0)  -->
<svg xmlns="http://www.w3.org/2000/svg" xmlns:xlink="http://www.w3.org/1999/xlink" version="1.1" id="Capa_1" x="0px" y="0px" viewBox="0 0 473.68 473.68" style="enable-background:new 0 0 473.68 473.68;" xml:space="preserve">
<circle style="fill:#FFFFFF;" cx="236.85" cy="236.85" r="236.83"/>
<path style="fill:#EFECEC;" d="M460.144,157.877H314.219c6.331,50.593,6.376,106.335,0.116,156.995h146.12  c8.523-24.438,13.219-50.682,13.219-78.026C473.678,209.143,468.88,182.577,460.144,157.877z"/>
<path style="fill:#C42B27;" d="M314.219,157.877h145.922c-0.03-0.075-0.052-0.138-0.075-0.206  C429.753,72.204,351.79,9.327,258.114,0.976C294.361,20.852,304.944,83.811,314.219,157.877z"/>
<path style="fill:#0B0B0B;" d="M258.114,472.701c93.848-8.362,171.927-71.46,202.12-157.156c0.075-0.228,0.146-0.452,0.228-0.673  H314.338C305.143,389.342,294.515,452.746,258.114,472.701z"/>
<path style="fill:#EFEFEF;" d="M0.001,236.846c0,27.348,4.689,53.588,13.219,78.026h313.313  c6.253-50.66,6.215-106.402-0.123-156.995H13.534C4.798,182.577,0.001,209.143,0.001,236.846z"/>
<path style="fill:#CC3434;" d="M13.609,157.672c-0.03,0.067-0.052,0.135-0.075,0.206h312.875  c-9.27-74.066-32.048-137.029-68.3-156.901C251.098,0.355,244.007,0,236.835,0C133.807,0.004,46.185,65.805,13.609,157.672z"/>
<path style="fill:#151515;" d="M326.533,314.872H13.22c0.079,0.221,0.146,0.445,0.228,0.673  C45.9,407.647,133.633,473.68,236.835,473.68c7.173,0,14.263-0.352,21.274-0.98C294.515,452.746,317.337,389.342,326.533,314.872z"/>
<g>
</g>
<g>
</g>
<g>
</g>
<g>
</g>
<g>
</g>
<g>
</g>
<g>
</g>
<g>
</g>
<g>
</g>
<g>
</g>
<g>
</g>
<g>
</g>
<g>
</g>
<g>
</g>
<g>
</g>
</svg>
