<?xml version="1.0" encoding="iso-8859-1"?>
<!-- Generator: Adobe Illustrator 19.0.0, SVG Export Plug-In . SVG Version: 6.00 Build 0)  -->
<svg xmlns="http://www.w3.org/2000/svg" xmlns:xlink="http://www.w3.org/1999/xlink" version="1.1" id="Capa_1" x="0px" y="0px" viewBox="0 0 473.684 473.684" style="enable-background:new 0 0 473.684 473.684;" xml:space="preserve">
<path style="fill:#EFECEC;" d="M296.892,82.469c55.626,27.404,110.112,83.957,111.851,149.751h64.822  C471.089,103.549,366.097,0,236.838,0C271.16,0.004,280.67,33.406,296.892,82.469z"/>
<g>
	<path style="fill:#D32027;" d="M312.703,82.469c13.93,42.119,10.512,95.774,10.987,149.751h85.053   C407.004,166.426,368.329,109.872,312.703,82.469z"/>
	<path style="fill:#D32027;" d="M473.565,232.224h-64.822c0.037,1.541,0.116,3.07,0.116,4.618   c0,67.567-51.55,124.932-108.227,153.068c-16.155,49.19-29.004,83.77-63.793,83.77c130.807,0,236.842-106.036,236.842-236.838   C473.681,235.294,473.595,233.764,473.565,232.224z"/>
</g>
<path style="fill:#EFECEC;" d="M313.208,390.98c56.677-28.133,95.651-86.571,95.651-154.138c0-1.548-0.079-3.081-0.116-4.618H323.69  C324.184,289.181,327.815,346.494,313.208,390.98z"/>
<path style="fill:#F3F4F5;" d="M0.12,232.224h64.822c2.453-92.865,78.445-167.398,171.897-167.398  c27.243,0,52.982,6.372,75.865,17.647C296.481,33.406,271.16,0.004,236.838,0.004C107.591,0.004,2.588,103.553,0.12,232.224z"/>
<g>
	<path style="fill:#E73B36;" d="M312.703,82.469c-22.882-11.275-48.622-17.647-75.865-17.647   c-93.452,0-169.444,74.533-171.897,167.398h269.373C333.843,178.247,326.633,124.588,312.703,82.469z"/>
	<path style="fill:#E73B36;" d="M313.208,390.98c-23.013,11.424-48.936,17.879-76.37,17.879c-95,0-172.013-77.017-172.013-172.017   c0-1.548,0.075-3.081,0.116-4.618H0.12c-0.03,1.544-0.116,3.07-0.116,4.622c0,130.799,106.036,236.838,236.835,236.838   C271.628,473.681,297.053,440.17,313.208,390.98z"/>
</g>
<path style="fill:#F3F4F5;" d="M334.314,232.224H64.941c-0.045,1.541-0.116,3.07-0.116,4.618c0,95,77.013,172.017,172.013,172.017  c27.434,0,53.356-6.458,76.37-17.879C327.815,346.494,334.811,289.181,334.314,232.224z"/>
<g>
</g>
<g>
</g>
<g>
</g>
<g>
</g>
<g>
</g>
<g>
</g>
<g>
</g>
<g>
</g>
<g>
</g>
<g>
</g>
<g>
</g>
<g>
</g>
<g>
</g>
<g>
</g>
<g>
</g>
</svg>
