<?xml version="1.0" encoding="iso-8859-1"?>
<!-- Generator: Adobe Illustrator 19.0.0, SVG Export Plug-In . SVG Version: 6.00 Build 0)  -->
<svg xmlns="http://www.w3.org/2000/svg" xmlns:xlink="http://www.w3.org/1999/xlink" version="1.1" id="Capa_1" x="0px" y="0px" viewBox="0 0 473.68 473.68" style="enable-background:new 0 0 473.68 473.68;" xml:space="preserve">
<path style="fill:#D32027;" d="M315.8,13.535l-27.64,76.624c25.511,84.2,25.511,209.162,0,293.358l27.639,76.624  c91.975-32.524,157.881-120.201,157.881-223.31C473.681,133.733,407.774,46.055,315.8,13.535z"/>
<g>
	<path style="fill:#E7E7E7;" d="M315.8,90.159V13.535C291.1,4.8,264.534,0.002,236.838,0.002   C273.355,0.002,222.718,123.774,315.8,90.159z"/>
	<path style="fill:#E7E7E7;" d="M236.838,473.678c27.695,0,54.261-4.798,78.961-13.534V383.52   C223.653,374.326,236.838,473.678,236.838,473.678z"/>
</g>
<g>
	<path style="fill:#E73B36;" d="M0,236.837C0,340.289,66.355,428.198,158.805,460.46V13.221C66.355,45.483,0,133.389,0,236.837z"/>
	<path style="fill:#E73B36;" d="M315.8,90.159v293.358C341.311,299.321,341.311,174.358,315.8,90.159z"/>
</g>
<path style="fill:#F3F1F2;" d="M315.8,383.521V90.159c-16.129-53.222-42.444-90.157-78.961-90.157  c-27.351,0-53.592,4.693-78.034,13.219v447.238c24.442,8.526,50.682,13.219,78.034,13.219  C273.355,473.678,299.671,436.743,315.8,383.521z"/>
<g>
</g>
<g>
</g>
<g>
</g>
<g>
</g>
<g>
</g>
<g>
</g>
<g>
</g>
<g>
</g>
<g>
</g>
<g>
</g>
<g>
</g>
<g>
</g>
<g>
</g>
<g>
</g>
<g>
</g>
</svg>
