<?xml version="1.0" encoding="utf-8"?>
<!-- Generator: Adobe Illustrator 16.0.0, SVG Export Plug-In . SVG Version: 6.00 Build 0)  -->
<!DOCTYPE svg PUBLIC "-//W3C//DTD SVG 1.1//EN" "http://www.w3.org/Graphics/SVG/1.1/DTD/svg11.dtd">
<svg version="1.1" id="Capa_1" xmlns="http://www.w3.org/2000/svg" xmlns:xlink="http://www.w3.org/1999/xlink" x="0px" y="0px"
	 width="800px" height="800px" viewBox="0 0 800 800" enable-background="new 0 0 800 800" xml:space="preserve">
<g>
	<rect x="25.807" y="450.322" fill="#FFFFFF" width="323.871" height="194.839"/>
	<rect x="450.322" y="154.839" fill="#FFFFFF" width="323.871" height="194.838"/>
	<rect x="25.807" y="154.839" fill="#FFFFFF" width="323.871" height="194.838"/>
	<path fill="#FFFFFF" d="M735.484,450.322c-7.127,0-12.903-5.775-12.903-12.903h-25.807c0,7.128-5.777,12.903-12.903,12.903H450.322
		v194.839h323.871V450.322H735.484z"/>
	<path fill="#ED1F34" d="M374.484,646.161V437.419c0-6.563-5.34-11.902-11.903-11.902H24.807v-51.033h337.774
		c6.563,0,11.903-5.34,11.903-11.903V153.839h51.031v208.742c0,6.563,5.34,11.903,11.903,11.903h337.774v51.033h-39.709
		c-6.563,0-11.903,5.339-11.903,11.902v1h-27.807v-1c0-6.563-5.34-11.902-11.903-11.902H437.419
		c-6.563,0-11.903,5.339-11.903,11.902v208.742H374.484z"/>
	<path fill="#ED1F34" d="M735.484,424.517h38.709v-49.033H437.419c-7.126,0-12.903-5.775-12.903-12.903V154.839h-49.031v207.742
		c0,7.128-5.777,12.903-12.903,12.903H25.807v49.033h336.774c7.126,0,12.903,5.775,12.903,12.902v207.742h49.031V437.419
		c0-7.127,5.777-12.902,12.903-12.902h246.452c7.126,0,12.903,5.775,12.903,12.902h25.807
		C722.581,430.292,728.357,424.517,735.484,424.517z"/>
	<path d="M787.097,129.032H12.903C5.777,129.032,0,134.808,0,141.936v516.129c0,7.128,5.777,12.903,12.903,12.903h774.193
		c7.126,0,12.903-5.775,12.903-12.903V141.936C800,134.808,794.223,129.032,787.097,129.032z M349.678,349.677H25.807V154.839
		h323.871V349.677z M25.807,450.322h323.871v194.839H25.807V450.322z M450.322,645.161V450.322h233.549
		c7.126,0,12.903-5.775,12.903-12.903c0-7.127-5.777-12.902-12.903-12.902H437.419c-7.126,0-12.903,5.775-12.903,12.902v207.742
		h-49.031V437.419c0-7.127-5.777-12.902-12.903-12.902H25.807v-49.033h336.774c7.126,0,12.903-5.775,12.903-12.903V154.839h49.031
		v207.742c0,7.128,5.777,12.903,12.903,12.903h336.774v49.033h-38.709c-7.127,0-12.903,5.775-12.903,12.902
		c0,7.128,5.776,12.903,12.903,12.903h38.709v194.839H450.322z M774.193,349.677H450.322V154.839h323.871V349.677z"/>
</g>
</svg>
